<svg width="120" height="120" viewBox="0 0 120 120" fill="none" xmlns="http://www.w3.org/2000/svg">
<rect width="120" height="120" rx="60" fill="white"/>
<g clip-path="url(#clip0_47_116)">
<path d="M54.5407 74.7257C55.5841 76.6729 54.8515 79.0973 52.9043 80.1407C50.9571 81.1841 48.5328 80.4515 47.4893 78.5043C46.4459 76.5571 47.1785 74.1328 49.1257 73.0893C51.0729 72.0459 53.4973 72.7785 54.5407 74.7257Z" fill="#1D1C19"/>
<path d="M42.2466 68.8307C39.4186 63.5532 39.1998 57.5747 41.1432 52.3749C42.785 47.982 45.97 44.1448 50.4285 41.7557C55.1798 39.2096 60.4993 38.7785 65.3072 40.136" stroke="#1D1C19" stroke-width="10" stroke-linecap="round"/>
<path d="M90.4 20C95.7019 20 100 24.2981 100 29.6V60C100 82.0914 82.0914 100 60 100C37.9086 100 20 82.0914 20 60C20 37.9086 37.9086 20 60 20H90.4ZM60 30.4C44.0942 30.4 31.2 43.2942 31.2 59.2C31.2 75.1058 44.0942 88 60 88C75.9058 88 88.8 75.1058 88.8 59.2C88.8 43.2942 75.9058 30.4 60 30.4ZM83.3938 27.5312C82.7689 26.9067 81.756 26.9065 81.1313 27.5312C80.5065 28.156 80.5066 29.1689 81.1313 29.7938L90.182 38.8453C90.8069 39.4702 91.8205 39.4702 92.4453 38.8453C93.0702 38.2205 93.0702 37.2069 92.4453 36.582L83.3938 27.5312ZM89.7938 25.9312C89.1689 25.3067 88.156 25.3065 87.5313 25.9312C86.9065 26.556 86.9066 27.5689 87.5313 28.1938L92.057 32.7195C92.6818 33.3443 93.6947 33.3443 94.3195 32.7195C94.9443 32.0947 94.9443 31.0818 94.3195 30.457L89.7938 25.9312Z" fill="#1D1C19"/>
</g>
<defs>
<clipPath id="clip0_47_116">
<rect width="80" height="80" fill="white" transform="translate(20 20)"/>
</clipPath>
</defs>
</svg>
