<svg width="100" height="100" viewBox="0 0 100 100" fill="none" xmlns="http://www.w3.org/2000/svg">
<circle cx="5" cy="5" r="5" transform="matrix(0.472328 0.881423 0.881423 -0.472328 32 68.7233)" fill="#1D1C19"/>
<path d="M27.8082 61.0384C24.2732 54.4415 23.9998 46.9684 26.429 40.4686C28.4813 34.9775 32.4625 30.181 38.0356 27.1946C43.9747 24.012 50.6241 23.4731 56.634 25.17" stroke="#1D1C19" stroke-width="10" stroke-linecap="round"/>
<path d="M88 0C94.6274 2.57703e-07 100 5.37258 100 12V50C100 77.6142 77.6142 100 50 100C22.3858 100 0 77.6142 0 50C0 22.3858 22.3858 0 50 0H88ZM50 13C30.1177 13 14 29.1177 14 49C14 68.8822 30.1177 85 50 85C69.8822 85 86 68.8822 86 49C86 29.1177 69.8822 13 50 13ZM79.2422 9.41406C78.4611 8.63332 77.195 8.63312 76.4141 9.41406C75.6331 10.195 75.6333 11.4611 76.4141 12.2422L87.7275 23.5566C88.5086 24.3377 89.7756 24.3377 90.5566 23.5566C91.3377 22.7756 91.3377 21.5086 90.5566 20.7275L79.2422 9.41406ZM87.2422 7.41406C86.4611 6.63332 85.195 6.63312 84.4141 7.41406C83.6331 8.19501 83.6333 9.46111 84.4141 10.2422L90.0713 15.8994C90.8523 16.6804 92.1184 16.6804 92.8994 15.8994C93.6804 15.1184 93.6804 13.8523 92.8994 13.0713L87.2422 7.41406Z" fill="#1D1C19"/>
</svg>
